Coordinates
version=1
nRows=9
nColumns=24
inDegrees=yes

Units are S.I. units (second, meters, Newtons, ...)
Angles are in degrees.

endheader
time	pelvis_tilt	pelvis_list	pelvis_rotation	pelvis_tx	pelvis_ty	pelvis_tz	hip_flexion_r	hip_adduction_r	hip_rotation_r	knee_angle_r	ankle_angle_r	subtalar_angle_r	mtp_angle_r	hip_flexion_l	hip_adduction_l	hip_rotation_l	knee_angle_l	ankle_angle_l	subtalar_angle_l	mtp_angle_l	lumbar_extension	lumbar_bending	lumbar_rotation
      2.06000000	     11.18182831	     -5.36710746	      7.02520137	      0.18612183	      0.95508968	      0.01925041	     -6.97328873	     10.80941381	    -11.36259266	    -10.89630569	     18.34142578	    -11.33665017	     12.03509270	      8.16854126	     -9.04482363	      0.25488174	    -65.24934572	     13.34723750	     -9.21278294	     27.39809470	    -20.01543445	      7.75866997	     -1.32394713
      2.06500000	     11.31196767	     -5.10740613	      6.93850119	      0.19124726	      0.95595505	      0.01961411	     -7.62237215	     10.61805194	    -11.22494404	    -10.64863573	     18.40667877	    -11.31298573	     11.97210253	      8.33421948	     -8.72497514	     -0.00400352	    -64.59930139	     13.80893926	     -8.97173740	     27.05242974	    -20.19363541	      7.46294204	     -1.33003237
      2.07000000	     11.33471888	     -4.84904061	      6.87734941	      0.19627770	      0.95660047	      0.01992771	     -8.11088531	     10.41238108	    -11.13059527	    -10.46894196	     18.52033765	    -11.35269787	     11.95496074	      8.64080219	     -8.37616402	     -0.20644402	    -63.93621925	     14.19977937	     -8.72055007	     26.94139946	    -20.25776970	      7.16747230	     -1.36816892
      2.07500000	     11.55588819	     -4.58223594	      6.75421442	      0.20142603	      0.95754422	      0.02034448	     -8.88325587	     10.21814180	    -10.94373087	    -10.17546892	     18.57565133	    -11.24756755	     11.91612075	      8.64112201	     -8.07544796	     -0.53448024	    -63.13274626	     14.63564122	     -8.48661260	     26.62462132	    -20.53911767	      6.85557815	     -1.33017462
      2.08000000	     11.68122202	     -4.29978286	      6.65870386	      0.20650969	      0.95830712	      0.02068214	     -9.50751474	      9.98888693	    -10.84837363	     -9.95928633	     18.66978085	    -11.18602290	     11.88905010	      8.75403193	     -7.72491658	     -0.81291317	    -62.29727782	     15.02903560	     -8.28507799	     26.28687662	    -20.71506696	      6.53039822	     -1.34615121
      2.08500000	     11.80738296	     -4.01886624	      6.57311818	      0.21155786	      0.95902851	      0.02098569	    -10.12329527	      9.75903179	    -10.78270976	     -9.75145430	     18.75810453	    -11.12125942	     11.86562533	      8.85435314	     -7.37086681	     -1.08272527	    -61.40624644	     15.40747662	     -8.12288618	     25.89819022	    -20.89439395	      6.21133381	     -1.36624907
      2.09000000	     11.90821480	     -3.74465976	      6.47031749	      0.21658830	      0.95966438	      0.02131490	    -10.70739372	      9.53057838	    -10.66388825	     -9.54821216	     18.89811643	    -11.05775820	     11.86551872	      8.96785209	     -7.02317399	     -1.36226419	    -60.46557725	     15.72863481	     -7.95716091	     25.64099955	    -21.04701067	      5.88856150	     -1.35446537
      2.09500000	     12.03026067	     -3.45432095	      6.36942283	      0.22162591	      0.96031481	      0.02162204	    -11.31034125	      9.28290407	    -10.59798130	     -9.35317204	     19.00692956	    -10.97609555	     11.87019199	      9.02538137	     -6.66008677	     -1.65938968	    -59.44317678	     16.03017984	     -7.88999368	     25.37135405	    -21.22205624	      5.55094743	     -1.37828872
      2.10000000	     12.15674438	     -3.16558947	      6.26893615	      0.22665453	      0.96092726	      0.02189757	    -11.90922250	      9.03155671	    -10.55664751	     -9.17300130	     19.12362661	    -10.86718169	     11.88488680	      9.05665815	     -6.29772434	     -1.96353360	    -58.35752866	     16.31257352	     -7.86734624	     25.09438072	    -21.40173446	      5.21831315	     -1.39690693
